<svg id="visual" viewBox="0 0 900 600" width="900" height="600" xmlns="http://www.w3.org/2000/svg" xmlns:xlink="http://www.w3.org/1999/xlink" version="1.1"><rect x="0" y="0" width="900" height="600" fill="#f7ecdf"></rect><defs><linearGradient id="grad1_0" x1="33.3%" y1="0%" x2="100%" y2="100%"><stop offset="20%" stop-color="#f7ecdf" stop-opacity="1"></stop><stop offset="80%" stop-color="#f7ecdf" stop-opacity="1"></stop></linearGradient></defs><defs><linearGradient id="grad2_0" x1="0%" y1="0%" x2="66.7%" y2="100%"><stop offset="20%" stop-color="#f7ecdf" stop-opacity="1"></stop><stop offset="80%" stop-color="#f7ecdf" stop-opacity="1"></stop></linearGradient></defs><g transform="translate(900, 0)"><path d="M0 351.5C-40.1 334.5 -80.2 317.6 -125.9 304C-171.6 290.4 -222.9 280.2 -248.6 248.6C-274.3 217 -274.4 164 -287.3 119C-300.2 74 -325.9 37 -351.5 0L0 0Z" fill="#f2d5c0"></path></g><g transform="translate(0, 600)"><path d="M0 -351.5C49 -349.8 98 -348.1 134.5 -324.8C171 -301.5 195 -256.6 220.6 -220.6C246.2 -184.7 273.5 -157.7 295.6 -122.5C317.7 -87.2 334.6 -43.6 351.5 0L0 0Z" fill="#f2d5c0"></path></g></svg>